<mxfile host="Electron" agent="Mozilla/5.0 (Windows NT 10.0; Win64; x64) AppleWebKit/537.36 (KHTML, like Gecko) draw.io/28.1.2 Chrome/138.0.7204.243 Electron/37.4.0 Safari/537.36" version="28.1.2">
  <diagram name="Page-1" id="bmxoNh9vQL_PVATE6gt9">
    <mxGraphModel dx="603" dy="547" grid="1" gridSize="10" guides="1" tooltips="1" connect="1" arrows="1" fold="1" page="1" pageScale="1" pageWidth="850" pageHeight="1100" math="0" shadow="0">
      <root>
        <mxCell id="0" />
        <mxCell id="1" parent="0" />
        <mxCell id="tVo6d2IhXC-hHpegByr_-56" value="&lt;em data-end=&quot;493&quot; data-start=&quot;462&quot;&gt;&lt;b&gt;&lt;font style=&quot;font-size: 14px;&quot;&gt;Sortie Escape Game&lt;/font&gt;&lt;/b&gt;&lt;/em&gt;" style="ellipse;whiteSpace=wrap;html=1;" parent="1" vertex="1">
          <mxGeometry x="315" y="500" width="180" height="100" as="geometry" />
        </mxCell>
        <mxCell id="tVo6d2IhXC-hHpegByr_-57" value="Organisation" style="ellipse;whiteSpace=wrap;html=1;" parent="1" vertex="1">
          <mxGeometry x="235" y="650" width="120" height="80" as="geometry" />
        </mxCell>
        <mxCell id="tVo6d2IhXC-hHpegByr_-58" value="Participants" style="ellipse;whiteSpace=wrap;html=1;" parent="1" vertex="1">
          <mxGeometry x="460" y="665" width="120" height="80" as="geometry" />
        </mxCell>
        <mxCell id="tVo6d2IhXC-hHpegByr_-59" value="Transport" style="ellipse;whiteSpace=wrap;html=1;" parent="1" vertex="1">
          <mxGeometry x="220" y="335" width="120" height="80" as="geometry" />
        </mxCell>
        <mxCell id="tVo6d2IhXC-hHpegByr_-60" value="Lieu" style="ellipse;whiteSpace=wrap;html=1;" parent="1" vertex="1">
          <mxGeometry x="545" y="510" width="120" height="80" as="geometry" />
        </mxCell>
        <mxCell id="tVo6d2IhXC-hHpegByr_-61" value="Budget" style="ellipse;whiteSpace=wrap;html=1;" parent="1" vertex="1">
          <mxGeometry x="445" y="320" width="120" height="80" as="geometry" />
        </mxCell>
        <mxCell id="tVo6d2IhXC-hHpegByr_-62" value="" style="endArrow=none;html=1;rounded=0;entryX=0.5;entryY=1;entryDx=0;entryDy=0;" parent="1" source="tVo6d2IhXC-hHpegByr_-56" target="tVo6d2IhXC-hHpegByr_-59" edge="1">
          <mxGeometry width="50" height="50" relative="1" as="geometry">
            <mxPoint x="315" y="450" as="sourcePoint" />
            <mxPoint x="255" y="380" as="targetPoint" />
          </mxGeometry>
        </mxCell>
        <mxCell id="tVo6d2IhXC-hHpegByr_-63" value="" style="endArrow=none;html=1;rounded=0;entryX=0.339;entryY=0.984;entryDx=0;entryDy=0;exitX=0.694;exitY=0.043;exitDx=0;exitDy=0;exitPerimeter=0;entryPerimeter=0;" parent="1" source="tVo6d2IhXC-hHpegByr_-56" target="tVo6d2IhXC-hHpegByr_-61" edge="1">
          <mxGeometry width="50" height="50" relative="1" as="geometry">
            <mxPoint x="425" y="510" as="sourcePoint" />
            <mxPoint x="635" y="580" as="targetPoint" />
          </mxGeometry>
        </mxCell>
        <mxCell id="tVo6d2IhXC-hHpegByr_-64" value="" style="endArrow=none;html=1;rounded=0;entryX=0;entryY=0.5;entryDx=0;entryDy=0;exitX=1;exitY=0.5;exitDx=0;exitDy=0;" parent="1" source="tVo6d2IhXC-hHpegByr_-56" target="tVo6d2IhXC-hHpegByr_-60" edge="1">
          <mxGeometry width="50" height="50" relative="1" as="geometry">
            <mxPoint x="645" y="620" as="sourcePoint" />
            <mxPoint x="595" y="520" as="targetPoint" />
          </mxGeometry>
        </mxCell>
        <mxCell id="tVo6d2IhXC-hHpegByr_-65" value="" style="endArrow=none;html=1;rounded=0;entryX=0.5;entryY=0;entryDx=0;entryDy=0;exitX=0.747;exitY=0.947;exitDx=0;exitDy=0;exitPerimeter=0;" parent="1" source="tVo6d2IhXC-hHpegByr_-56" target="tVo6d2IhXC-hHpegByr_-58" edge="1">
          <mxGeometry width="50" height="50" relative="1" as="geometry">
            <mxPoint x="575" y="920" as="sourcePoint" />
            <mxPoint x="525" y="820" as="targetPoint" />
          </mxGeometry>
        </mxCell>
        <mxCell id="tVo6d2IhXC-hHpegByr_-66" value="" style="endArrow=none;html=1;rounded=0;entryX=0.241;entryY=0.928;entryDx=0;entryDy=0;exitX=0.5;exitY=0;exitDx=0;exitDy=0;entryPerimeter=0;" parent="1" source="tVo6d2IhXC-hHpegByr_-57" target="tVo6d2IhXC-hHpegByr_-56" edge="1">
          <mxGeometry width="50" height="50" relative="1" as="geometry">
            <mxPoint x="435" y="850" as="sourcePoint" />
            <mxPoint x="385" y="750" as="targetPoint" />
          </mxGeometry>
        </mxCell>
        <mxCell id="tVo6d2IhXC-hHpegByr_-67" value="Communication" style="ellipse;whiteSpace=wrap;html=1;" parent="1" vertex="1">
          <mxGeometry x="135" y="510" width="120" height="80" as="geometry" />
        </mxCell>
        <mxCell id="tVo6d2IhXC-hHpegByr_-68" value="" style="endArrow=none;html=1;rounded=0;entryX=0;entryY=0.5;entryDx=0;entryDy=0;exitX=1;exitY=0.5;exitDx=0;exitDy=0;" parent="1" source="tVo6d2IhXC-hHpegByr_-67" target="tVo6d2IhXC-hHpegByr_-56" edge="1">
          <mxGeometry width="50" height="50" relative="1" as="geometry">
            <mxPoint x="235" y="560" as="sourcePoint" />
            <mxPoint x="346" y="560" as="targetPoint" />
          </mxGeometry>
        </mxCell>
        <mxCell id="tVo6d2IhXC-hHpegByr_-69" value="places disponibles" style="ellipse;whiteSpace=wrap;html=1;" parent="1" vertex="1">
          <mxGeometry x="675" y="450" width="90" height="50" as="geometry" />
        </mxCell>
        <mxCell id="tVo6d2IhXC-hHpegByr_-70" value="adresse" style="ellipse;whiteSpace=wrap;html=1;" parent="1" vertex="1">
          <mxGeometry x="745" y="525" width="90" height="50" as="geometry" />
        </mxCell>
        <mxCell id="tVo6d2IhXC-hHpegByr_-71" value="" style="endArrow=none;html=1;rounded=0;entryX=0;entryY=1;entryDx=0;entryDy=0;exitX=1;exitY=0;exitDx=0;exitDy=0;" parent="1" source="tVo6d2IhXC-hHpegByr_-60" target="tVo6d2IhXC-hHpegByr_-69" edge="1">
          <mxGeometry width="50" height="50" relative="1" as="geometry">
            <mxPoint x="655" y="530" as="sourcePoint" />
            <mxPoint x="699" y="557" as="targetPoint" />
          </mxGeometry>
        </mxCell>
        <mxCell id="tVo6d2IhXC-hHpegByr_-72" value="" style="endArrow=none;html=1;rounded=0;entryX=0;entryY=0.5;entryDx=0;entryDy=0;exitX=1;exitY=0.5;exitDx=0;exitDy=0;" parent="1" source="tVo6d2IhXC-hHpegByr_-60" target="tVo6d2IhXC-hHpegByr_-70" edge="1">
          <mxGeometry width="50" height="50" relative="1" as="geometry">
            <mxPoint x="645" y="667" as="sourcePoint" />
            <mxPoint x="703" y="660" as="targetPoint" />
          </mxGeometry>
        </mxCell>
        <mxCell id="tVo6d2IhXC-hHpegByr_-73" value="horraires" style="ellipse;whiteSpace=wrap;html=1;" parent="1" vertex="1">
          <mxGeometry x="655" y="590" width="90" height="50" as="geometry" />
        </mxCell>
        <mxCell id="tVo6d2IhXC-hHpegByr_-74" value="" style="endArrow=none;html=1;rounded=0;entryX=0;entryY=0;entryDx=0;entryDy=0;exitX=1;exitY=1;exitDx=0;exitDy=0;" parent="1" source="tVo6d2IhXC-hHpegByr_-60" target="tVo6d2IhXC-hHpegByr_-73" edge="1">
          <mxGeometry width="50" height="50" relative="1" as="geometry">
            <mxPoint x="685" y="720" as="sourcePoint" />
            <mxPoint x="705" y="720" as="targetPoint" />
          </mxGeometry>
        </mxCell>
        <mxCell id="tVo6d2IhXC-hHpegByr_-75" value="prise en charge" style="ellipse;whiteSpace=wrap;html=1;" parent="1" vertex="1">
          <mxGeometry x="595" y="335" width="90" height="50" as="geometry" />
        </mxCell>
        <mxCell id="tVo6d2IhXC-hHpegByr_-76" value="prix par personne" style="ellipse;whiteSpace=wrap;html=1;" parent="1" vertex="1">
          <mxGeometry x="460" y="240" width="90" height="50" as="geometry" />
        </mxCell>
        <mxCell id="tVo6d2IhXC-hHpegByr_-77" value="" style="endArrow=none;html=1;rounded=0;entryX=0.5;entryY=1;entryDx=0;entryDy=0;exitX=0.5;exitY=0;exitDx=0;exitDy=0;" parent="1" source="tVo6d2IhXC-hHpegByr_-61" target="tVo6d2IhXC-hHpegByr_-76" edge="1">
          <mxGeometry width="50" height="50" relative="1" as="geometry">
            <mxPoint x="685" y="349" as="sourcePoint" />
            <mxPoint x="706" y="330" as="targetPoint" />
          </mxGeometry>
        </mxCell>
        <mxCell id="tVo6d2IhXC-hHpegByr_-78" value="" style="endArrow=none;html=1;rounded=0;entryX=0;entryY=0.5;entryDx=0;entryDy=0;exitX=1;exitY=0.5;exitDx=0;exitDy=0;" parent="1" source="tVo6d2IhXC-hHpegByr_-61" target="tVo6d2IhXC-hHpegByr_-75" edge="1">
          <mxGeometry width="50" height="50" relative="1" as="geometry">
            <mxPoint x="765" y="359" as="sourcePoint" />
            <mxPoint x="786" y="340" as="targetPoint" />
          </mxGeometry>
        </mxCell>
        <mxCell id="tVo6d2IhXC-hHpegByr_-79" value="moyen" style="ellipse;whiteSpace=wrap;html=1;" parent="1" vertex="1">
          <mxGeometry x="135" y="260" width="90" height="50" as="geometry" />
        </mxCell>
        <mxCell id="tVo6d2IhXC-hHpegByr_-80" value="horaires" style="ellipse;whiteSpace=wrap;html=1;" parent="1" vertex="1">
          <mxGeometry x="235" y="230" width="90" height="50" as="geometry" />
        </mxCell>
        <mxCell id="tVo6d2IhXC-hHpegByr_-81" value="lieu rdv" style="ellipse;whiteSpace=wrap;html=1;" parent="1" vertex="1">
          <mxGeometry x="340" y="260" width="90" height="50" as="geometry" />
        </mxCell>
        <mxCell id="tVo6d2IhXC-hHpegByr_-82" value="" style="endArrow=none;html=1;rounded=0;entryX=0;entryY=0;entryDx=0;entryDy=0;exitX=1;exitY=1;exitDx=0;exitDy=0;" parent="1" source="tVo6d2IhXC-hHpegByr_-79" target="tVo6d2IhXC-hHpegByr_-59" edge="1">
          <mxGeometry width="50" height="50" relative="1" as="geometry">
            <mxPoint x="115" y="210" as="sourcePoint" />
            <mxPoint x="139" y="237" as="targetPoint" />
          </mxGeometry>
        </mxCell>
        <mxCell id="tVo6d2IhXC-hHpegByr_-83" value="" style="endArrow=none;html=1;rounded=0;entryX=0.5;entryY=0;entryDx=0;entryDy=0;exitX=0.5;exitY=1;exitDx=0;exitDy=0;" parent="1" source="tVo6d2IhXC-hHpegByr_-80" target="tVo6d2IhXC-hHpegByr_-59" edge="1">
          <mxGeometry width="50" height="50" relative="1" as="geometry">
            <mxPoint x="205" y="360" as="sourcePoint" />
            <mxPoint x="253" y="412" as="targetPoint" />
          </mxGeometry>
        </mxCell>
        <mxCell id="tVo6d2IhXC-hHpegByr_-84" value="" style="endArrow=none;html=1;rounded=0;entryX=1;entryY=0;entryDx=0;entryDy=0;exitX=0;exitY=1;exitDx=0;exitDy=0;" parent="1" source="tVo6d2IhXC-hHpegByr_-81" target="tVo6d2IhXC-hHpegByr_-59" edge="1">
          <mxGeometry width="50" height="50" relative="1" as="geometry">
            <mxPoint x="575" y="230" as="sourcePoint" />
            <mxPoint x="575" y="340" as="targetPoint" />
          </mxGeometry>
        </mxCell>
        <mxCell id="tVo6d2IhXC-hHpegByr_-85" value="moyen" style="ellipse;whiteSpace=wrap;html=1;" parent="1" vertex="1">
          <mxGeometry x="15" y="525" width="90" height="50" as="geometry" />
        </mxCell>
        <mxCell id="tVo6d2IhXC-hHpegByr_-86" value="" style="endArrow=none;html=1;rounded=0;entryX=1;entryY=0.5;entryDx=0;entryDy=0;exitX=0;exitY=0.5;exitDx=0;exitDy=0;" parent="1" source="tVo6d2IhXC-hHpegByr_-67" target="tVo6d2IhXC-hHpegByr_-85" edge="1">
          <mxGeometry width="50" height="50" relative="1" as="geometry">
            <mxPoint x="115" y="408" as="sourcePoint" />
            <mxPoint x="174" y="340" as="targetPoint" />
          </mxGeometry>
        </mxCell>
        <mxCell id="tVo6d2IhXC-hHpegByr_-87" value="liste des membres" style="ellipse;whiteSpace=wrap;html=1;" parent="1" vertex="1">
          <mxGeometry x="595" y="680" width="90" height="50" as="geometry" />
        </mxCell>
        <mxCell id="tVo6d2IhXC-hHpegByr_-88" value="Plannification" style="ellipse;whiteSpace=wrap;html=1;" parent="1" vertex="1">
          <mxGeometry x="140" y="740" width="85" height="50" as="geometry" />
        </mxCell>
        <mxCell id="tVo6d2IhXC-hHpegByr_-89" value="nombre exact" style="ellipse;whiteSpace=wrap;html=1;" parent="1" vertex="1">
          <mxGeometry x="585" y="755" width="90" height="50" as="geometry" />
        </mxCell>
        <mxCell id="tVo6d2IhXC-hHpegByr_-90" value="Confirmation disponibilités" style="ellipse;whiteSpace=wrap;html=1;" parent="1" vertex="1">
          <mxGeometry x="475" y="770" width="90" height="50" as="geometry" />
        </mxCell>
        <mxCell id="tVo6d2IhXC-hHpegByr_-91" value="" style="endArrow=none;html=1;rounded=0;entryX=0.5;entryY=1;entryDx=0;entryDy=0;exitX=0.5;exitY=0;exitDx=0;exitDy=0;" parent="1" source="tVo6d2IhXC-hHpegByr_-90" target="tVo6d2IhXC-hHpegByr_-58" edge="1">
          <mxGeometry width="50" height="50" relative="1" as="geometry">
            <mxPoint x="475" y="1078" as="sourcePoint" />
            <mxPoint x="534" y="1010" as="targetPoint" />
          </mxGeometry>
        </mxCell>
        <mxCell id="tVo6d2IhXC-hHpegByr_-92" value="" style="endArrow=none;html=1;rounded=0;entryX=1;entryY=1;entryDx=0;entryDy=0;exitX=0;exitY=0;exitDx=0;exitDy=0;" parent="1" source="tVo6d2IhXC-hHpegByr_-89" target="tVo6d2IhXC-hHpegByr_-58" edge="1">
          <mxGeometry width="50" height="50" relative="1" as="geometry">
            <mxPoint x="635" y="1022" as="sourcePoint" />
            <mxPoint x="653" y="990" as="targetPoint" />
          </mxGeometry>
        </mxCell>
        <mxCell id="tVo6d2IhXC-hHpegByr_-93" value="" style="endArrow=none;html=1;rounded=0;entryX=1;entryY=0.5;entryDx=0;entryDy=0;exitX=0;exitY=0.5;exitDx=0;exitDy=0;" parent="1" source="tVo6d2IhXC-hHpegByr_-87" target="tVo6d2IhXC-hHpegByr_-58" edge="1">
          <mxGeometry width="50" height="50" relative="1" as="geometry">
            <mxPoint x="583" y="1012" as="sourcePoint" />
            <mxPoint x="555" y="950" as="targetPoint" />
          </mxGeometry>
        </mxCell>
        <mxCell id="tVo6d2IhXC-hHpegByr_-94" value="diagramme Gantt" style="ellipse;whiteSpace=wrap;html=1;" parent="1" vertex="1">
          <mxGeometry x="260" y="750" width="75" height="45" as="geometry" />
        </mxCell>
        <mxCell id="tVo6d2IhXC-hHpegByr_-95" value="" style="endArrow=none;html=1;rounded=0;entryX=0.5;entryY=1;entryDx=0;entryDy=0;exitX=0.5;exitY=0;exitDx=0;exitDy=0;" parent="1" source="tVo6d2IhXC-hHpegByr_-94" target="tVo6d2IhXC-hHpegByr_-57" edge="1">
          <mxGeometry width="50" height="50" relative="1" as="geometry">
            <mxPoint x="345" y="888" as="sourcePoint" />
            <mxPoint x="404" y="820" as="targetPoint" />
          </mxGeometry>
        </mxCell>
        <mxCell id="tVo6d2IhXC-hHpegByr_-96" value="" style="endArrow=none;html=1;rounded=0;entryX=0;entryY=1;entryDx=0;entryDy=0;exitX=1;exitY=0;exitDx=0;exitDy=0;" parent="1" source="tVo6d2IhXC-hHpegByr_-88" target="tVo6d2IhXC-hHpegByr_-57" edge="1">
          <mxGeometry width="50" height="50" relative="1" as="geometry">
            <mxPoint x="75" y="948" as="sourcePoint" />
            <mxPoint x="134" y="880" as="targetPoint" />
          </mxGeometry>
        </mxCell>
        <mxCell id="vNj5vPlyM2tXj6DMAoER-1" value="Infos à partager" style="ellipse;whiteSpace=wrap;html=1;" parent="1" vertex="1">
          <mxGeometry x="150" y="440" width="90" height="50" as="geometry" />
        </mxCell>
        <mxCell id="vNj5vPlyM2tXj6DMAoER-2" value="" style="endArrow=none;html=1;rounded=0;entryX=0.5;entryY=1;entryDx=0;entryDy=0;exitX=0.5;exitY=0;exitDx=0;exitDy=0;" parent="1" source="tVo6d2IhXC-hHpegByr_-67" target="vNj5vPlyM2tXj6DMAoER-1" edge="1">
          <mxGeometry width="50" height="50" relative="1" as="geometry">
            <mxPoint x="240" y="460" as="sourcePoint" />
            <mxPoint x="210" y="460" as="targetPoint" />
          </mxGeometry>
        </mxCell>
        <mxCell id="vNj5vPlyM2tXj6DMAoER-3" value="date et heure" style="ellipse;whiteSpace=wrap;html=1;" parent="1" vertex="1">
          <mxGeometry x="50" y="445" width="60" height="40" as="geometry" />
        </mxCell>
        <mxCell id="vNj5vPlyM2tXj6DMAoER-4" value="" style="endArrow=none;html=1;rounded=0;entryX=0;entryY=0.5;entryDx=0;entryDy=0;exitX=1;exitY=0.5;exitDx=0;exitDy=0;" parent="1" source="vNj5vPlyM2tXj6DMAoER-3" target="vNj5vPlyM2tXj6DMAoER-1" edge="1">
          <mxGeometry width="50" height="50" relative="1" as="geometry">
            <mxPoint x="260" y="490" as="sourcePoint" />
            <mxPoint x="340" y="490" as="targetPoint" />
          </mxGeometry>
        </mxCell>
        <mxCell id="vNj5vPlyM2tXj6DMAoER-5" value="information transport" style="ellipse;whiteSpace=wrap;html=1;" parent="1" vertex="1">
          <mxGeometry x="60" y="385" width="90" height="40" as="geometry" />
        </mxCell>
        <mxCell id="vNj5vPlyM2tXj6DMAoER-6" value="" style="endArrow=none;html=1;rounded=0;entryX=0;entryY=0;entryDx=0;entryDy=0;exitX=1;exitY=1;exitDx=0;exitDy=0;" parent="1" source="vNj5vPlyM2tXj6DMAoER-5" target="vNj5vPlyM2tXj6DMAoER-1" edge="1">
          <mxGeometry width="50" height="50" relative="1" as="geometry">
            <mxPoint x="180" y="420" as="sourcePoint" />
            <mxPoint x="200" y="410" as="targetPoint" />
          </mxGeometry>
        </mxCell>
        <mxCell id="vNj5vPlyM2tXj6DMAoER-7" value="prix" style="ellipse;whiteSpace=wrap;html=1;" parent="1" vertex="1">
          <mxGeometry x="255" y="445" width="60" height="40" as="geometry" />
        </mxCell>
        <mxCell id="vNj5vPlyM2tXj6DMAoER-9" value="" style="endArrow=none;html=1;rounded=0;entryX=0;entryY=0.5;entryDx=0;entryDy=0;exitX=1;exitY=0.5;exitDx=0;exitDy=0;" parent="1" source="vNj5vPlyM2tXj6DMAoER-1" target="vNj5vPlyM2tXj6DMAoER-7" edge="1">
          <mxGeometry width="50" height="50" relative="1" as="geometry">
            <mxPoint x="260" y="490" as="sourcePoint" />
            <mxPoint x="282" y="513" as="targetPoint" />
          </mxGeometry>
        </mxCell>
        <mxCell id="vNj5vPlyM2tXj6DMAoER-10" value="activité ludique" style="ellipse;whiteSpace=wrap;html=1;" parent="1" vertex="1">
          <mxGeometry x="390" y="840" width="120" height="80" as="geometry" />
        </mxCell>
        <mxCell id="vNj5vPlyM2tXj6DMAoER-11" value="" style="endArrow=none;html=1;rounded=0;entryX=0.5;entryY=1;entryDx=0;entryDy=0;exitX=0.5;exitY=0;exitDx=0;exitDy=0;" parent="1" source="vNj5vPlyM2tXj6DMAoER-10" target="tVo6d2IhXC-hHpegByr_-56" edge="1">
          <mxGeometry width="50" height="50" relative="1" as="geometry">
            <mxPoint x="530" y="1118" as="sourcePoint" />
            <mxPoint x="589" y="1050" as="targetPoint" />
          </mxGeometry>
        </mxCell>
        <mxCell id="vNj5vPlyM2tXj6DMAoER-13" value="photo de groupe" style="ellipse;whiteSpace=wrap;html=1;" parent="1" vertex="1">
          <mxGeometry x="555" y="850" width="100" height="60" as="geometry" />
        </mxCell>
        <mxCell id="vNj5vPlyM2tXj6DMAoER-14" value="" style="endArrow=none;html=1;rounded=0;entryX=1;entryY=0.5;entryDx=0;entryDy=0;exitX=0;exitY=0.5;exitDx=0;exitDy=0;" parent="1" source="vNj5vPlyM2tXj6DMAoER-13" target="vNj5vPlyM2tXj6DMAoER-10" edge="1">
          <mxGeometry width="50" height="50" relative="1" as="geometry">
            <mxPoint x="390" y="1055" as="sourcePoint" />
            <mxPoint x="390" y="1030" as="targetPoint" />
          </mxGeometry>
        </mxCell>
        <mxCell id="vNj5vPlyM2tXj6DMAoER-15" value="prix gagnants" style="ellipse;whiteSpace=wrap;html=1;" parent="1" vertex="1">
          <mxGeometry x="530" y="930" width="90" height="50" as="geometry" />
        </mxCell>
        <mxCell id="vNj5vPlyM2tXj6DMAoER-16" value="" style="endArrow=none;html=1;rounded=0;entryX=1;entryY=1;entryDx=0;entryDy=0;exitX=0;exitY=0;exitDx=0;exitDy=0;" parent="1" source="vNj5vPlyM2tXj6DMAoER-15" target="vNj5vPlyM2tXj6DMAoER-10" edge="1">
          <mxGeometry width="50" height="50" relative="1" as="geometry">
            <mxPoint x="303" y="977" as="sourcePoint" />
            <mxPoint x="260" y="950" as="targetPoint" />
          </mxGeometry>
        </mxCell>
        <mxCell id="97HVKo9xOrYl1dMzeVOy-1" value="Nourriture" style="ellipse;whiteSpace=wrap;html=1;" parent="1" vertex="1">
          <mxGeometry x="270" y="915" width="120" height="80" as="geometry" />
        </mxCell>
        <mxCell id="97HVKo9xOrYl1dMzeVOy-2" value="" style="endArrow=none;html=1;rounded=0;entryX=0.378;entryY=0.99;entryDx=0;entryDy=0;exitX=0.5;exitY=0;exitDx=0;exitDy=0;entryPerimeter=0;" parent="1" source="97HVKo9xOrYl1dMzeVOy-1" target="tVo6d2IhXC-hHpegByr_-56" edge="1">
          <mxGeometry width="50" height="50" relative="1" as="geometry">
            <mxPoint x="405" y="1010" as="sourcePoint" />
            <mxPoint x="360" y="770" as="targetPoint" />
          </mxGeometry>
        </mxCell>
        <mxCell id="97HVKo9xOrYl1dMzeVOy-3" value="Restaurant" style="ellipse;whiteSpace=wrap;html=1;" parent="1" vertex="1">
          <mxGeometry x="180" y="865" width="90" height="50" as="geometry" />
        </mxCell>
        <mxCell id="97HVKo9xOrYl1dMzeVOy-4" value="" style="endArrow=none;html=1;rounded=0;entryX=1;entryY=1;entryDx=0;entryDy=0;exitX=0;exitY=0;exitDx=0;exitDy=0;" parent="1" source="97HVKo9xOrYl1dMzeVOy-1" target="97HVKo9xOrYl1dMzeVOy-3" edge="1">
          <mxGeometry width="50" height="50" relative="1" as="geometry">
            <mxPoint x="310" y="885" as="sourcePoint" />
            <mxPoint x="310" y="860" as="targetPoint" />
          </mxGeometry>
        </mxCell>
        <mxCell id="97HVKo9xOrYl1dMzeVOy-5" value="Picknick" style="ellipse;whiteSpace=wrap;html=1;" parent="1" vertex="1">
          <mxGeometry x="190" y="995" width="90" height="50" as="geometry" />
        </mxCell>
        <mxCell id="97HVKo9xOrYl1dMzeVOy-6" value="" style="endArrow=none;html=1;rounded=0;entryX=1;entryY=0;entryDx=0;entryDy=0;exitX=0;exitY=1;exitDx=0;exitDy=0;" parent="1" source="97HVKo9xOrYl1dMzeVOy-1" target="97HVKo9xOrYl1dMzeVOy-5" edge="1">
          <mxGeometry width="50" height="50" relative="1" as="geometry">
            <mxPoint x="151" y="959" as="sourcePoint" />
            <mxPoint x="120" y="940" as="targetPoint" />
          </mxGeometry>
        </mxCell>
        <mxCell id="97HVKo9xOrYl1dMzeVOy-7" value="Réservation" style="ellipse;whiteSpace=wrap;html=1;" parent="1" vertex="1">
          <mxGeometry x="90" y="870" width="70" height="40" as="geometry" />
        </mxCell>
        <mxCell id="97HVKo9xOrYl1dMzeVOy-8" value="" style="endArrow=none;html=1;rounded=0;entryX=0;entryY=0.5;entryDx=0;entryDy=0;exitX=1;exitY=0.5;exitDx=0;exitDy=0;" parent="1" source="97HVKo9xOrYl1dMzeVOy-7" target="97HVKo9xOrYl1dMzeVOy-3" edge="1">
          <mxGeometry width="50" height="50" relative="1" as="geometry">
            <mxPoint x="150" y="830" as="sourcePoint" />
            <mxPoint x="175" y="830" as="targetPoint" />
          </mxGeometry>
        </mxCell>
        <mxCell id="97HVKo9xOrYl1dMzeVOy-9" value="rappel" style="ellipse;whiteSpace=wrap;html=1;" parent="1" vertex="1">
          <mxGeometry x="165" y="610" width="60" height="40" as="geometry" />
        </mxCell>
        <mxCell id="97HVKo9xOrYl1dMzeVOy-10" value="" style="endArrow=none;html=1;rounded=0;entryX=0.5;entryY=1;entryDx=0;entryDy=0;exitX=0.5;exitY=0;exitDx=0;exitDy=0;" parent="1" source="97HVKo9xOrYl1dMzeVOy-9" target="tVo6d2IhXC-hHpegByr_-67" edge="1">
          <mxGeometry width="50" height="50" relative="1" as="geometry">
            <mxPoint x="130" y="640" as="sourcePoint" />
            <mxPoint x="130" y="620" as="targetPoint" />
          </mxGeometry>
        </mxCell>
        <mxCell id="97HVKo9xOrYl1dMzeVOy-11" value="un jour à l&#39;avance" style="ellipse;whiteSpace=wrap;html=1;" parent="1" vertex="1">
          <mxGeometry x="65" y="610" width="70" height="40" as="geometry" />
        </mxCell>
        <mxCell id="97HVKo9xOrYl1dMzeVOy-12" value="" style="endArrow=none;html=1;rounded=0;entryX=0;entryY=0.5;entryDx=0;entryDy=0;exitX=1;exitY=0.5;exitDx=0;exitDy=0;" parent="1" source="97HVKo9xOrYl1dMzeVOy-11" target="97HVKo9xOrYl1dMzeVOy-9" edge="1">
          <mxGeometry width="50" height="50" relative="1" as="geometry">
            <mxPoint x="120" y="630" as="sourcePoint" />
            <mxPoint x="160" y="630" as="targetPoint" />
          </mxGeometry>
        </mxCell>
        <mxCell id="97HVKo9xOrYl1dMzeVOy-13" value="une semaine à l&#39;avance" style="ellipse;whiteSpace=wrap;html=1;" parent="1" vertex="1">
          <mxGeometry x="110" y="670" width="80" height="50" as="geometry" />
        </mxCell>
        <mxCell id="97HVKo9xOrYl1dMzeVOy-14" value="" style="endArrow=none;html=1;rounded=0;entryX=0;entryY=1;entryDx=0;entryDy=0;exitX=0.5;exitY=0;exitDx=0;exitDy=0;" parent="1" source="97HVKo9xOrYl1dMzeVOy-13" target="97HVKo9xOrYl1dMzeVOy-9" edge="1">
          <mxGeometry width="50" height="50" relative="1" as="geometry">
            <mxPoint x="170" y="650" as="sourcePoint" />
            <mxPoint x="200" y="650" as="targetPoint" />
          </mxGeometry>
        </mxCell>
      </root>
    </mxGraphModel>
  </diagram>
</mxfile>
